TITLE ""
FILE "2Q_t_0135-0152.mp3" MP3
  TRACK 01 AUDIO
    TITLE "2Q_t_0135-0152_01"
    INDEX 01 00:00:00
  TRACK 02 AUDIO
    TITLE "2Q_t_0135-0152_02"
    INDEX 01 00:01:16
  TRACK 03 AUDIO
    TITLE "2Q_t_0135-0152_03"
    INDEX 01 00:01:61
  TRACK 04 AUDIO
    TITLE "2Q_t_0135-0152_04"
    INDEX 01 00:03:73
  TRACK 05 AUDIO
    TITLE "2Q_t_0135-0152_05"
    INDEX 01 00:04:41
  TRACK 06 AUDIO
    TITLE "2Q_t_0135-0152_06"
    INDEX 01 00:05:68
  TRACK 07 AUDIO
    TITLE "2Q_t_0135-0152_07"
    INDEX 01 00:06:44
  TRACK 08 AUDIO
    TITLE "2Q_t_0135-0152_08"
    INDEX 01 00:10:28
  TRACK 09 AUDIO
    TITLE "2Q_t_0135-0152_09"
    INDEX 01 00:10:71
  TRACK 10 AUDIO
    TITLE "2Q_t_0135-0152_10"
    INDEX 01 00:12:10
  TRACK 11 AUDIO
    TITLE "2Q_t_0135-0152_11"
    INDEX 01 00:12:68
  TRACK 12 AUDIO
    TITLE "2Q_t_0135-0152_12"
    INDEX 01 00:14:34
  TRACK 13 AUDIO
    TITLE "2Q_t_0135-0152_13"
    INDEX 01 00:15:02
  TRACK 14 AUDIO
    TITLE "2Q_t_0135-0152_14"
    INDEX 01 00:16:00
  TRACK 15 AUDIO
    TITLE "2Q_t_0135-0152_15"
    INDEX 01 00:16:49
  TRACK 16 AUDIO
    TITLE "2Q_t_0135-0152_16"
    INDEX 01 00:17:62
  TRACK 17 AUDIO
    TITLE "2Q_t_0135-0152_17"
    INDEX 01 00:18:32
  TRACK 18 AUDIO
    TITLE "2Q_t_0135-0152_18"
    INDEX 01 00:19:51
  TRACK 19 AUDIO
    TITLE "2Q_t_0135-0152_19"
    INDEX 01 00:20:21
  TRACK 20 AUDIO
    TITLE "2Q_t_0135-0152_20"
    INDEX 01 00:21:18
  TRACK 21 AUDIO
    TITLE "2Q_t_0135-0152_21"
    INDEX 01 00:21:63
  TRACK 22 AUDIO
    TITLE "2Q_t_0135-0152_22"
    INDEX 01 00:23:13
  TRACK 23 AUDIO
    TITLE "2Q_t_0135-0152_23"
    INDEX 01 00:23:60
  TRACK 24 AUDIO
    TITLE "2Q_t_0135-0152_24"
    INDEX 01 00:27:42
  TRACK 25 AUDIO
    TITLE "2Q_t_0135-0152_25"
    INDEX 01 00:28:13
  TRACK 26 AUDIO
    TITLE "2Q_t_0135-0152_26"
    INDEX 01 00:29:35
  TRACK 27 AUDIO
    TITLE "2Q_t_0135-0152_27"
    INDEX 01 00:30:09
  TRACK 28 AUDIO
    TITLE "2Q_t_0135-0152_28"
    INDEX 01 00:33:10
  TRACK 29 AUDIO
    TITLE "2Q_t_0135-0152_29"
    INDEX 01 00:33:55
  TRACK 30 AUDIO
    TITLE "2Q_t_0135-0152_30"
    INDEX 01 00:34:66
  TRACK 31 AUDIO
    TITLE "2Q_t_0135-0152_31"
    INDEX 01 00:35:36
  TRACK 32 AUDIO
    TITLE "2Q_t_0135-0152_32"
    INDEX 01 00:36:53
  TRACK 33 AUDIO
    TITLE "2Q_t_0135-0152_33"
    INDEX 01 00:37:23
  TRACK 34 AUDIO
    TITLE "2Q_t_0135-0152_34"
    INDEX 01 00:38:40
  TRACK 35 AUDIO
    TITLE "2Q_t_0135-0152_35"
    INDEX 01 00:39:14
  TRACK 36 AUDIO
    TITLE "2Q_t_0135-0152_36"
    INDEX 01 00:42:34
  TRACK 37 AUDIO
    TITLE "2Q_t_0135-0152_37"
    INDEX 01 00:43:04
  TRACK 38 AUDIO
    TITLE "2Q_t_0135-0152_38"
    INDEX 01 00:44:37
  TRACK 39 AUDIO
    TITLE "2Q_t_0135-0152_39"
    INDEX 01 00:45:15
  TRACK 40 AUDIO
    TITLE "2Q_t_0135-0152_40"
    INDEX 01 00:47:35
  TRACK 41 AUDIO
    TITLE "2Q_t_0135-0152_41"
    INDEX 01 00:48:05
  TRACK 42 AUDIO
    TITLE "2Q_t_0135-0152_42"
    INDEX 01 00:49:42
  TRACK 43 AUDIO
    TITLE "2Q_t_0135-0152_43"
    INDEX 01 00:50:14
  TRACK 44 AUDIO
    TITLE "2Q_t_0135-0152_44"
    INDEX 01 00:53:24
  TRACK 45 AUDIO
    TITLE "2Q_t_0135-0152_45"
    INDEX 01 00:53:67
  TRACK 46 AUDIO
    TITLE "2Q_t_0135-0152_46"
    INDEX 01 00:55:03
  TRACK 47 AUDIO
    TITLE "2Q_t_0135-0152_47"
    INDEX 01 00:55:51
  TRACK 48 AUDIO
    TITLE "2Q_t_0135-0152_48"
    INDEX 01 00:57:71
  TRACK 49 AUDIO
    TITLE "2Q_t_0135-0152_49"
    INDEX 01 00:58:43
  TRACK 50 AUDIO
    TITLE "2Q_t_0135-0152_50"
    INDEX 01 00:59:42
  TRACK 51 AUDIO
    TITLE "2Q_t_0135-0152_51"
    INDEX 01 01:00:14
  TRACK 52 AUDIO
    TITLE "2Q_t_0135-0152_52"
    INDEX 01 01:01:26
  TRACK 53 AUDIO
    TITLE "2Q_t_0135-0152_53"
    INDEX 01 01:01:69
  TRACK 54 AUDIO
    TITLE "2Q_t_0135-0152_54"
    INDEX 01 01:03:17
  TRACK 55 AUDIO
    TITLE "2Q_t_0135-0152_55"
    INDEX 01 01:03:66
  TRACK 56 AUDIO
    TITLE "2Q_t_0135-0152_56"
    INDEX 01 01:07:18
  TRACK 57 AUDIO
    TITLE "2Q_t_0135-0152_57"
    INDEX 01 01:07:64
  TRACK 58 AUDIO
    TITLE "2Q_t_0135-0152_58"
    INDEX 01 01:09:00
  TRACK 59 AUDIO
    TITLE "2Q_t_0135-0152_59"
    INDEX 01 01:09:45
  TRACK 60 AUDIO
    TITLE "2Q_t_0135-0152_60"
    INDEX 01 01:10:38
  TRACK 61 AUDIO
    TITLE "2Q_t_0135-0152_61"
    INDEX 01 01:11:08
  TRACK 62 AUDIO
    TITLE "2Q_t_0135-0152_62"
    INDEX 01 01:12:25
  TRACK 63 AUDIO
    TITLE "2Q_t_0135-0152_63"
    INDEX 01 01:12:72
  TRACK 64 AUDIO
    TITLE "2Q_t_0135-0152_64"
    INDEX 01 01:16:68
  TRACK 65 AUDIO
    TITLE "2Q_t_0135-0152_65"
    INDEX 01 01:17:38
  TRACK 66 AUDIO
    TITLE "2Q_t_0135-0152_66"
    INDEX 01 01:18:40
  TRACK 67 AUDIO
    TITLE "2Q_t_0135-0152_67"
    INDEX 01 01:19:12
  TRACK 68 AUDIO
    TITLE "2Q_t_0135-0152_68"
    INDEX 01 01:22:22
  TRACK 69 AUDIO
    TITLE "2Q_t_0135-0152_69"
    INDEX 01 01:22:67
  TRACK 70 AUDIO
    TITLE "2Q_t_0135-0152_70"
    INDEX 01 01:24:01
  TRACK 71 AUDIO
    TITLE "2Q_t_0135-0152_71"
    INDEX 01 01:24:48
  TRACK 72 AUDIO
    TITLE "2Q_t_0135-0152_72"
    INDEX 01 01:25:65
